<!DOCTYPE svg PUBLIC "-//W3C//DTD SVG 1.1//EN" "http://www.w3.org/Graphics/SVG/1.1/DTD/svg11.dtd">
<!-- Uploaded to: SVG Repo, www.svgrepo.com, Transformed by: SVG Repo Mixer Tools -->
<svg width="256px" height="256px" viewBox="-76.8 -76.8 665.60 665.60" version="1.1" xmlns="http://www.w3.org/2000/svg" xmlns:xlink="http://www.w3.org/1999/xlink" fill="#0b9075" stroke="#0b9075" stroke-width="0.00512">
<g id="SVGRepo_bgCarrier" stroke-whiteidth="0" transform="translate(0,0), scale(1)">
<rect x="-76.8" y="-76.8" width="665.60" height="665.60" rx="0" fill="#0b9075" strokewidth="0"/>
</g>
<g id="SVGRepo_tracerCarrier" stroke-linecap="round" stroke-linejoin="round" stroke="#CCCCCC" stroke-width="2.048"/>
<g id="SVGRepo_iconCarrier"> <title>location-filled</title> <g id="Page-1" stroke="none" stroke-whiteidth="1" fill="none" fill-rule="evenodd"> <g id="location-outline" fill="white" transform="translate(106.666667, 42.666667)"> <path d="M149.333333,7.10542736e-15 C231.807856,7.10542736e-15 298.666667,66.8588107 298.666667,149.333333 C298.666667,176.537017 291.413333,202.026667 278.683512,224.008666 C270.196964,238.663333 227.080238,313.32711 149.333333,448 C71.5864284,313.32711 28.4697022,238.663333 19.9831547,224.008666 C7.25333333,202.026667 2.84217094e-14,176.537017 2.84217094e-14,149.333333 C2.84217094e-14,66.8588107 66.8588107,7.10542736e-15 149.333333,7.10542736e-15 Z M149.333333,85.3333333 C113.987109,85.3333333 85.3333333,113.987109 85.3333333,149.333333 C85.3333333,184.679557 113.987109,213.333333 149.333333,213.333333 C184.679557,213.333333 213.333333,184.679557 213.333333,149.333333 C213.333333,113.987109 184.679557,85.3333333 149.333333,85.3333333 Z" id="Combined-Shape"> </path> </g> </g> </g>
</svg>