<svg width="793" height="199" viewBox="0 0 793 199" fill="none" xmlns="http://www.w3.org/2000/svg">
<g opacity="0.3" clip-path="url(#clip0_201_146)" filter="url(#filter0_d_201_146)">
<path fill-rule="evenodd" clip-rule="evenodd" d="M529.424 115.816C526.629 118.495 527.43 118.182 520.927 116.222C515.224 114.366 517.929 113.751 512.823 116.732C508.225 119.516 500.719 122.288 497.225 124.445C498.532 127.426 509.724 137.204 512.429 141.217C511.426 141.728 510.625 142.145 509.532 142.656C507.83 143.479 508.236 143.479 506.23 142.25C501.835 139.675 487.724 131.439 484.929 130.21C481.233 131.857 471.427 137.007 468.035 136.798C466.435 136.694 463.831 136.288 464.338 134.223C465.634 129.178 474.437 126.405 480.139 123.83C482.438 122.798 481.841 122.903 482.337 120.328C482.946 117.555 486.744 97.3848 487.634 96.3525C488.029 96.0394 491.128 94.7055 491.736 94.3923C492.041 96.2481 492.232 98.3012 492.334 100.261L493.337 111.686C493.337 113.542 493.641 115.7 493.934 117.451C496.538 116.117 499.13 114.98 501.835 113.647C515.235 107.058 512.835 111.489 515.934 104.077C517.737 99.9598 517.737 97.4892 521.637 98.104C520.927 106.351 523.124 111.489 529.424 115.816ZM415.628 36.0612C419.235 37.1978 418.423 37.3022 423.427 32.5583C427.822 28.4406 425.129 29.0554 431.023 29.5773C436.219 29.9833 444.221 29.2642 448.323 29.6817C448.425 32.8714 442.327 46.6626 441.527 51.4994C442.632 51.4994 443.522 51.4994 444.728 51.4994C446.633 51.4994 446.227 51.7081 447.624 49.7479C450.521 45.4215 459.729 31.7347 461.825 29.4729C465.927 29.3686 476.826 29.5773 479.824 28.0347C481.221 27.2111 483.419 25.5641 482.123 23.917C478.821 20.0082 469.726 21.3421 463.527 21.5509C461.025 21.5509 461.633 21.4465 460.022 19.3935C458.32 17.1317 446.52 0.55675 445.325 0.0463958C444.829 -0.0579948 441.426 0.0463958 440.828 0.0463958C441.234 1.90223 441.933 3.74646 442.632 5.6023L446.531 16.4009C447.23 18.048 447.929 20.2054 448.436 21.8524C445.539 21.748 442.632 21.8524 439.634 21.8524C424.836 21.8524 428.938 24.8334 422.931 19.4862C419.64 16.5053 418.637 14.3363 415.335 16.6097C419.336 23.7199 419.528 29.3686 415.628 36.0612ZM414.028 25.5641C415.527 25.3553 416.034 27.7215 414.321 28.0347L411.92 28.3478C410.421 28.661 409.813 26.1904 411.514 25.8773L414.028 25.5641ZM201.65 190.223C200.85 191.87 198.652 190.629 199.351 189.191L199.948 187.857C200.748 186.314 202.946 187.544 202.146 188.993L201.65 190.223ZM205.448 182.092C204.648 183.635 202.45 182.51 203.25 180.955L204.355 178.693C205.053 177.151 207.251 178.38 206.552 179.819L205.448 182.092ZM209.945 173.033C209.246 174.471 206.947 173.439 207.747 171.897L208.942 169.635C209.64 168.196 211.838 169.229 211.139 170.876L209.945 173.033ZM214.746 164.183C213.844 165.726 211.748 164.288 212.548 162.942L213.844 160.68C214.746 159.138 216.741 160.576 215.941 161.91L214.746 164.183ZM219.75 155.438C218.848 156.876 216.752 155.542 217.654 154.104L218.95 151.946C219.75 150.508 221.948 151.842 221.046 153.28L219.75 155.438ZM225.047 146.796C224.247 148.13 222.049 146.901 222.951 145.463L224.348 143.305C225.148 141.971 227.346 143.201 226.343 144.743L225.047 146.796ZM230.547 138.457C229.544 139.791 227.65 138.248 228.552 136.914L229.95 134.861C230.953 133.527 232.947 135.07 231.944 136.404L230.547 138.457ZM236.34 130.221C235.337 131.555 233.443 130.013 234.435 128.679L235.934 126.626C236.937 125.292 238.831 126.939 237.828 128.168L236.34 130.221ZM242.144 122.508C241.242 123.019 240.149 122.195 240.239 121.174C240.138 120.56 240.634 119.736 241.344 119.632L242.144 118.599C243.147 117.37 245.142 118.912 244.049 120.246L243.846 120.56L244.24 120.664C245.841 121.279 244.838 123.645 243.339 123.03L242.144 122.508ZM248.85 114.482C247.644 115.723 245.953 113.971 247.047 112.73L248.647 110.874C249.842 109.541 251.543 111.385 250.45 112.521L248.85 114.482ZM255.544 106.966C254.44 108.195 252.547 106.455 253.741 105.214L255.443 103.358C256.548 102.129 258.339 103.869 257.246 105.11L255.544 106.966ZM262.442 99.7626C261.146 100.899 259.545 98.9391 260.74 97.9068L262.442 96.1553C263.738 94.9143 265.338 96.8745 264.245 98.0112L262.442 99.7626ZM269.644 92.7684C268.438 93.9051 266.747 92.0493 267.942 90.9126L269.846 89.1612C271.041 88.0245 272.743 89.9847 271.447 91.1214L269.644 92.7684ZM277.037 86.1802C275.932 87.2126 274.242 85.3567 275.538 84.2316L277.443 82.5846C278.84 81.4479 280.238 83.6169 278.942 84.5448L277.037 86.1802ZM284.836 79.8008C283.438 80.8331 282.041 78.7685 283.337 77.8406L285.242 76.2979C286.639 75.2656 288.037 77.3302 286.741 78.2582L284.836 79.8008ZM292.737 73.8274C291.542 74.7553 289.941 72.795 291.339 71.7743C292.038 71.264 292.737 70.742 293.435 70.3361C294.63 69.4081 296.23 71.3684 294.833 72.3891C294.145 72.8994 293.447 73.317 292.737 73.8274ZM300.941 68.1671C299.544 69.095 298.338 66.8332 299.645 66.0097L301.741 64.6758C303.139 63.7479 304.446 66.0097 303.038 66.8332L300.941 68.1671ZM309.338 62.9243C308.042 63.7479 306.644 61.5905 308.143 60.6625L310.341 59.433C311.637 58.6095 313.034 60.7669 311.535 61.6948L309.338 62.9243ZM318.038 57.9832C316.438 58.8067 315.435 56.4405 316.832 55.7214L319.03 54.4919C320.529 53.7728 321.634 56.1389 320.236 56.8581L318.038 57.9832ZM326.841 53.4596C325.443 54.1787 324.237 51.9169 325.736 51.0934C326.536 50.7802 327.235 50.3743 328.035 50.0611C329.433 49.342 330.537 51.6038 329.038 52.3229C328.339 52.7289 327.539 53.042 326.841 53.4596ZM335.834 49.2376C334.234 49.8523 333.434 47.4861 334.831 46.8714L337.13 45.8391C338.731 45.2243 339.531 47.6833 338.032 48.2053L335.834 49.2376ZM344.941 45.4215C343.442 46.0363 342.54 43.6701 344.039 43.0553L346.44 42.1274C347.837 41.5127 348.84 43.8788 347.24 44.4936L344.941 45.4215ZM354.239 41.9302C352.74 42.4406 351.838 40.0744 353.438 39.564C354.239 39.2509 355.039 38.9493 355.839 38.7405C357.237 38.1258 358.138 40.492 356.538 41.1067C355.738 41.4083 355.039 41.6171 354.239 41.9302ZM363.638 38.8449C361.936 39.2509 361.44 36.7919 362.939 36.3743L365.34 35.6552C366.94 35.2492 367.538 37.7082 365.937 38.1258L363.638 38.8449ZM373.139 36.0612C371.539 36.4787 370.941 34.0081 372.542 33.5906L374.942 32.9758C376.441 32.5699 377.14 35.0288 375.54 35.4464L373.139 36.0612ZM382.73 33.695C381.231 34.1009 380.431 31.642 382.133 31.12L384.635 30.6096C386.336 30.2965 386.641 32.8714 385.131 33.0802L382.73 33.695ZM392.332 31.5376C390.732 31.8507 390.337 29.3802 391.938 29.067L394.338 28.661C396.04 28.3478 396.435 30.8184 394.834 31.1316L392.332 31.5376ZM402.126 29.7861C400.526 30.0993 400.03 27.6287 401.732 27.3155L404.132 26.9096C405.733 26.5964 406.229 29.1714 404.527 29.4845L402.126 29.7861ZM69.156 129.398C66.3497 132.077 67.1612 131.764 60.6582 129.711C54.9554 127.96 57.6603 127.241 52.5548 130.326C47.9565 133.005 40.4505 135.882 36.9567 138.039C38.2528 141.02 49.4555 150.798 52.1604 154.811C51.1573 155.322 50.3571 155.635 49.2639 156.145C47.5621 157.073 47.9678 157.073 45.9617 155.832C41.5663 153.257 27.4671 144.917 24.6608 143.792C20.9641 145.439 11.159 150.589 7.7666 150.38C6.16622 150.276 3.56278 149.766 4.06994 147.701C5.36603 142.656 14.1681 139.883 19.8709 137.308C22.1701 136.276 21.5727 136.485 22.0686 133.91C22.666 131.033 26.4753 110.967 27.3657 109.935C27.67 109.622 30.8595 108.183 31.4681 107.975C31.7724 109.831 31.9752 111.779 32.0654 113.739L33.0685 125.269C33.0685 127.02 33.3728 129.282 33.6658 130.929C36.2692 129.688 38.8614 128.458 41.5663 127.229C54.9667 120.641 52.4647 125.072 55.6654 117.66C57.4687 113.542 57.3673 111.072 61.3682 111.686C60.6582 119.933 62.8559 125.083 69.156 129.398ZM66.2595 119.214C64.7606 119.724 65.3579 122.091 67.0597 121.685L69.3589 120.861C70.7564 120.444 70.2605 117.985 68.5587 118.391L66.2595 119.214ZM326.739 174.576C328.035 175.713 329.433 173.648 328.238 172.627L327.235 171.804C325.837 170.667 324.44 172.732 325.635 173.764L326.739 174.576ZM319.842 168.916C321.138 169.948 322.637 167.988 321.442 166.955L319.447 165.308C318.151 164.276 316.652 166.341 317.948 167.361L319.842 168.916ZM312.043 162.745C313.237 163.777 314.838 161.817 313.542 160.692L311.547 159.149C310.251 158.221 308.65 160.182 310.048 161.214L312.043 162.745ZM304.041 156.771C305.438 157.804 306.745 155.542 305.438 154.718L303.342 153.28C301.944 152.248 300.637 154.521 301.944 155.333L304.041 156.771ZM295.836 151.111C297.233 152.039 298.541 149.882 297.233 148.954L295.137 147.62C293.74 146.692 292.342 148.757 293.74 149.685L295.836 151.111ZM287.541 145.66C288.837 146.483 290.234 144.43 288.736 143.502L286.639 142.168C285.343 141.345 283.946 143.398 285.343 144.326L287.541 145.66ZM278.942 140.51C280.542 141.333 281.545 139.071 280.238 138.248L278.04 137.018C276.541 136.195 275.437 138.457 276.845 139.28L278.942 140.51ZM270.342 135.673C271.841 136.392 272.844 134.13 271.447 133.411L269.249 132.17C267.75 131.451 266.646 133.713 268.145 134.432L270.342 135.673ZM261.439 131.149C262.938 131.869 264.042 129.607 262.532 128.783L260.334 127.751C258.937 127.032 257.731 129.189 259.23 130.013L261.439 131.149ZM252.547 126.927C254.147 127.542 254.947 125.176 253.448 124.561L251.149 123.529C249.65 122.914 248.748 125.28 250.247 125.895L252.547 126.927ZM234.142 119.516C235.844 120.026 236.34 117.555 234.942 117.149L232.542 116.326C230.84 115.816 230.344 118.286 231.742 118.692L234.142 119.516ZM224.743 116.43C226.242 116.941 226.94 114.47 225.441 113.96L223.041 113.241C221.44 112.823 220.742 115.294 222.342 115.711L224.743 116.43ZM215.242 113.763C216.639 114.169 217.541 111.814 215.839 111.292L213.439 110.677C211.635 110.271 211.342 112.835 212.841 113.148L215.242 113.763ZM205.651 111.396C207.251 111.71 207.646 109.239 206.147 108.926L203.645 108.415C202.044 108.102 201.548 110.573 203.137 110.886L205.651 111.396ZM195.947 109.541C197.446 109.854 198.043 107.383 196.342 106.966C195.541 106.861 194.64 106.652 193.839 106.56C192.341 106.246 191.743 108.717 193.445 109.135C194.245 109.227 195.147 109.332 195.947 109.541ZM186.153 107.998C187.855 108.207 188.058 105.632 186.457 105.527L184.057 105.214C182.355 105.005 182.152 107.58 183.753 107.685L186.153 107.998ZM176.348 106.966C177.948 107.07 178.253 104.599 176.551 104.391L174.049 104.182C172.55 103.973 172.155 106.548 173.947 106.757L176.348 106.966ZM166.554 106.246C168.256 106.351 168.154 103.776 166.656 103.776L164.153 103.671C162.452 103.567 162.452 106.142 164.052 106.142L166.554 106.246ZM156.647 106.038C158.248 106.038 158.349 103.463 156.647 103.463C155.847 103.463 154.946 103.463 154.145 103.463C152.646 103.463 152.444 106.038 154.145 106.038C155.058 106.038 155.847 106.038 156.647 106.038ZM146.752 106.246C148.555 106.038 148.251 103.567 146.651 103.671L144.25 103.776C142.548 103.88 142.751 106.455 144.352 106.351L146.752 106.246ZM136.958 106.757C138.559 106.652 138.356 104.077 136.755 104.182L134.253 104.391C132.653 104.495 132.856 107.07 134.456 106.966L136.958 106.757ZM127.153 107.685C128.652 107.58 128.551 105.005 126.849 105.214C126.049 105.319 125.147 105.423 124.347 105.527C122.848 105.632 122.949 108.207 124.651 107.998C125.451 107.893 126.251 107.789 127.153 107.685ZM117.359 109.019C119.061 108.705 118.464 106.246 116.965 106.548L114.451 106.861C112.851 107.279 113.347 109.749 114.846 109.436L117.359 109.019ZM107.554 110.77C109.154 110.457 108.76 107.893 107.16 108.195L104.657 108.705C103.159 109.019 103.553 111.489 105.153 111.176L107.554 110.77ZM97.9517 112.73C99.4506 112.521 99.0562 109.958 97.3543 110.26L94.9538 110.874C93.2519 111.292 94.0521 113.751 95.5511 113.345L97.9517 112.73ZM88.3606 115.201C89.961 114.69 89.2623 112.22 87.6619 112.73L85.2613 113.345C83.6609 113.751 84.3597 116.222 85.96 115.816L88.3606 115.201ZM78.7583 117.88C80.3587 117.474 79.7614 114.899 78.0596 115.41L75.7604 116.129C74.2615 116.535 74.7574 119.005 76.4592 118.599L78.7583 117.88ZM526.517 105.632C525.018 106.142 525.615 108.508 527.317 108.102L529.616 107.279C531.013 106.861 530.619 104.402 528.816 104.913L526.517 105.632ZM786.996 161.098C788.292 162.13 789.791 160.066 788.495 159.138L787.492 158.21C786.095 157.073 784.697 159.242 785.892 160.17L786.996 161.098ZM780.099 155.438C781.406 156.47 782.894 154.405 781.699 153.385L779.693 151.842C778.397 150.81 776.887 152.77 778.194 153.802L780.099 155.438ZM772.3 149.163C773.494 150.195 775.095 148.235 773.799 147.202L771.804 145.66C770.508 144.627 768.907 146.588 770.305 147.713L772.3 149.163ZM764.298 143.294C765.695 144.221 767.003 142.064 765.695 141.136L763.7 139.698C762.201 138.77 760.894 140.939 762.303 141.855L764.298 143.294ZM756.104 137.529C757.502 138.457 758.798 136.299 757.502 135.371L755.406 134.038C754.008 133.11 752.701 135.279 754.008 136.195L756.104 137.529ZM747.798 132.077C749.105 133.005 750.503 130.941 749.105 129.92L746.908 128.586C745.713 127.762 744.214 129.816 745.713 130.848L747.798 132.077ZM739.3 126.927C740.799 127.751 741.802 125.489 740.506 124.77L738.308 123.436C736.809 122.717 735.705 124.979 737.114 125.698L739.3 126.927ZM730.611 122.091C732.11 122.81 733.214 120.652 731.704 119.829L729.506 118.692C728.007 117.869 727.004 120.235 728.402 120.954L730.611 122.091ZM721.707 117.567C723.206 118.286 724.311 116.024 722.812 115.305L720.614 114.169C719.216 113.449 718.022 115.711 719.51 116.43L721.707 117.567ZM712.804 113.345C714.404 113.96 715.204 111.594 713.705 110.979L711.508 109.947C709.907 109.332 709.006 111.802 710.505 112.313L712.804 113.345ZM703.607 109.541C705.106 110.155 706.098 107.789 704.509 107.07L702.21 106.246C700.711 105.632 699.809 107.998 701.308 108.613L703.607 109.541ZM694.411 106.038C696.112 106.548 696.608 103.985 695.211 103.567L692.81 102.744C691.108 102.233 690.612 104.704 692.01 105.214L694.411 106.038ZM685.011 102.848C686.612 103.358 687.209 100.899 685.71 100.482L683.309 99.7626C681.709 99.2523 681.01 101.723 682.61 102.129L685.011 102.848ZM675.51 100.18C676.908 100.586 677.809 98.2199 676.107 97.7096L673.707 97.0949C671.904 96.6889 671.599 99.2523 673.11 99.5654L675.51 100.18ZM665.908 97.9068C667.508 98.22 667.903 95.645 666.404 95.3318L663.902 94.8215C662.301 94.5083 661.896 96.9789 663.507 97.292L665.908 97.9068ZM656.215 95.9582C657.714 96.2713 658.323 93.8008 656.61 93.4876C655.81 93.2788 655.01 93.1744 654.108 92.9772C652.71 92.7685 652.012 95.239 653.713 95.5522C654.615 95.645 655.415 95.8538 656.215 95.9582ZM646.41 94.4155C648.112 94.6243 648.315 92.1537 646.715 91.9449L644.314 91.6317C642.612 91.423 642.409 93.9979 644.01 94.1023L646.41 94.4155ZM636.616 93.3832C638.217 93.592 638.51 91.017 636.819 90.8082L634.317 90.5994C632.818 90.495 632.413 92.9656 634.216 93.1744L636.616 93.3832ZM626.811 92.7684C628.513 92.7684 628.412 90.1935 626.913 90.1935L624.411 90.0891C622.709 90.0891 622.709 92.5597 624.309 92.6641L626.811 92.7684ZM616.916 92.4553C618.516 92.4553 618.618 89.9847 616.916 89.8803C616.116 89.8803 615.214 89.8803 614.414 89.8803C612.915 89.8803 612.712 92.4553 614.414 92.4553C615.315 92.4553 616.116 92.4553 616.916 92.4553ZM607.021 92.6641C608.824 92.5597 608.519 89.9847 606.919 90.0891L604.518 90.1935C602.817 90.2979 603.02 92.8728 604.62 92.7684L607.021 92.6641ZM597.215 93.1744C598.816 93.07 598.714 90.495 597.012 90.7038L594.51 90.9126C592.91 91.017 593.113 93.4876 594.713 93.3832L597.215 93.1744ZM587.421 94.2067C588.92 93.9979 588.819 91.423 587.117 91.6317C586.317 91.7361 585.415 91.8405 584.615 91.9449C583.116 92.0493 583.218 94.6243 584.919 94.4155C585.72 94.3111 586.52 94.2067 587.421 94.2067ZM577.616 95.4362C579.318 95.123 578.709 92.6641 577.222 92.9656L574.72 93.3716C573.119 93.6848 573.615 96.1553 575.114 95.8422L577.616 95.4362ZM567.811 97.1876C569.411 96.8745 569.017 94.4155 567.417 94.7171L564.926 95.123C563.427 95.4362 563.821 97.9996 565.422 97.698L567.811 97.1876ZM558.22 99.2523C559.719 98.9391 559.325 96.3757 557.623 96.7817L555.222 97.292C553.52 97.8024 554.32 100.18 555.819 99.7626L558.22 99.2523ZM548.618 101.618C550.218 101.108 549.519 98.7419 548.02 99.1479L545.518 99.7626C543.918 100.273 544.617 102.639 546.217 102.233L548.618 101.618ZM539.117 104.286C540.616 103.88 540.018 101.41 538.418 101.816L536.018 102.535C534.519 102.941 535.014 105.516 536.716 105.005L539.117 104.286Z" fill="#1ABC9C"/>
</g>
<defs>
<filter id="filter0_d_201_146" x="0" y="0" width="793" height="199" filterUnits="userSpaceOnUse" color-interpolation-filters="sRGB">
<feFlood flood-opacity="0" result="BackgroundImageFix"/>
<feColorMatrix in="SourceAlpha" type="matrix" values="0 0 0 0 0 0 0 0 0 0 0 0 0 0 0 0 0 0 127 0" result="hardAlpha"/>
<feOffset dy="4"/>
<feGaussianBlur stdDeviation="2"/>
<feComposite in2="hardAlpha" operator="out"/>
<feColorMatrix type="matrix" values="0 0 0 0 0 0 0 0 0 0 0 0 0 0 0 0 0 0 0.25 0"/>
<feBlend mode="normal" in2="BackgroundImageFix" result="effect1_dropShadow_201_146"/>
<feBlend mode="normal" in="SourceGraphic" in2="effect1_dropShadow_201_146" result="shape"/>
</filter>
<clipPath id="clip0_201_146">
<rect width="785" height="191" fill="white" transform="translate(4)"/>
</clipPath>
</defs>
</svg>
